<mxfile host="Electron" agent="Mozilla/5.0 (Windows NT 10.0; Win64; x64) AppleWebKit/537.36 (KHTML, like Gecko) draw.io/28.1.2 Chrome/138.0.7204.243 Electron/37.4.0 Safari/537.36" version="28.1.2">
  <diagram name="Page-1" id="aCCLwFJIUtcTHOw3q1L9">
    <mxGraphModel dx="772" dy="501" grid="1" gridSize="10" guides="1" tooltips="1" connect="1" arrows="1" fold="1" page="1" pageScale="1" pageWidth="850" pageHeight="1100" math="0" shadow="0">
      <root>
        <mxCell id="0" />
        <mxCell id="1" parent="0" />
        <mxCell id="ZkQlCj-t4eO2nXIB6Crw-1" value="" style="rounded=0;whiteSpace=wrap;html=1;fillColor=none;" parent="1" vertex="1">
          <mxGeometry x="10" y="120" width="120" height="420" as="geometry" />
        </mxCell>
        <mxCell id="ZkQlCj-t4eO2nXIB6Crw-2" value="" style="rounded=0;whiteSpace=wrap;html=1;fillColor=none;strokeColor=#FFCC99;" parent="1" vertex="1">
          <mxGeometry x="180" y="170" width="160" height="370" as="geometry" />
        </mxCell>
        <mxCell id="ZkQlCj-t4eO2nXIB6Crw-3" value="Bronze Layer" style="rounded=1;whiteSpace=wrap;html=1;fontSize=16;fillColor=light-dark(#000000,#FFCC99);strokeColor=#FFB570;fontStyle=1;fontColor=#030303;" parent="1" vertex="1">
          <mxGeometry x="180" y="120" width="160" height="40" as="geometry" />
        </mxCell>
        <mxCell id="ZkQlCj-t4eO2nXIB6Crw-5" value="Sources" style="rounded=0;whiteSpace=wrap;html=1;fillColor=default;fontSize=15;" parent="1" vertex="1">
          <mxGeometry x="30" y="100" width="80" height="40" as="geometry" />
        </mxCell>
        <mxCell id="ZkQlCj-t4eO2nXIB6Crw-23" style="edgeStyle=orthogonalEdgeStyle;rounded=0;orthogonalLoop=1;jettySize=auto;html=1;" parent="1" source="ZkQlCj-t4eO2nXIB6Crw-6" target="ZkQlCj-t4eO2nXIB6Crw-18" edge="1">
          <mxGeometry relative="1" as="geometry">
            <mxPoint x="170" y="260" as="targetPoint" />
          </mxGeometry>
        </mxCell>
        <mxCell id="ZkQlCj-t4eO2nXIB6Crw-26" style="edgeStyle=orthogonalEdgeStyle;rounded=0;orthogonalLoop=1;jettySize=auto;html=1;" parent="1" source="ZkQlCj-t4eO2nXIB6Crw-6" target="ZkQlCj-t4eO2nXIB6Crw-10" edge="1">
          <mxGeometry relative="1" as="geometry" />
        </mxCell>
        <mxCell id="ZkQlCj-t4eO2nXIB6Crw-27" style="edgeStyle=orthogonalEdgeStyle;rounded=0;orthogonalLoop=1;jettySize=auto;html=1;entryX=0;entryY=0.75;entryDx=0;entryDy=0;" parent="1" source="ZkQlCj-t4eO2nXIB6Crw-6" target="ZkQlCj-t4eO2nXIB6Crw-17" edge="1">
          <mxGeometry relative="1" as="geometry" />
        </mxCell>
        <mxCell id="ZkQlCj-t4eO2nXIB6Crw-6" value="" style="image;aspect=fixed;html=1;points=[];align=center;fontSize=12;image=img/lib/azure2/general/Folder_Blank.svg;" parent="1" vertex="1">
          <mxGeometry x="45.36" y="240" width="49.29" height="40" as="geometry" />
        </mxCell>
        <mxCell id="ZkQlCj-t4eO2nXIB6Crw-28" style="edgeStyle=orthogonalEdgeStyle;rounded=0;orthogonalLoop=1;jettySize=auto;html=1;entryX=0;entryY=0.5;entryDx=0;entryDy=0;" parent="1" source="ZkQlCj-t4eO2nXIB6Crw-7" target="ZkQlCj-t4eO2nXIB6Crw-21" edge="1">
          <mxGeometry relative="1" as="geometry" />
        </mxCell>
        <mxCell id="ZkQlCj-t4eO2nXIB6Crw-29" style="edgeStyle=orthogonalEdgeStyle;rounded=0;orthogonalLoop=1;jettySize=auto;html=1;" parent="1" source="ZkQlCj-t4eO2nXIB6Crw-7" target="ZkQlCj-t4eO2nXIB6Crw-19" edge="1">
          <mxGeometry relative="1" as="geometry" />
        </mxCell>
        <mxCell id="ZkQlCj-t4eO2nXIB6Crw-7" value="" style="image;aspect=fixed;html=1;points=[];align=center;fontSize=12;image=img/lib/azure2/general/Folder_Blank.svg;" parent="1" vertex="1">
          <mxGeometry x="45.36" y="430" width="49.29" height="40" as="geometry" />
        </mxCell>
        <mxCell id="ZkQlCj-t4eO2nXIB6Crw-8" value="CRM" style="text;html=1;align=center;verticalAlign=middle;whiteSpace=wrap;rounded=0;fontStyle=1;fontSize=15;" parent="1" vertex="1">
          <mxGeometry x="40" y="280" width="60" height="30" as="geometry" />
        </mxCell>
        <mxCell id="ZkQlCj-t4eO2nXIB6Crw-9" value="ERP" style="text;html=1;align=center;verticalAlign=middle;whiteSpace=wrap;rounded=0;fontStyle=1;fontSize=15;" parent="1" vertex="1">
          <mxGeometry x="40" y="470" width="60" height="30" as="geometry" />
        </mxCell>
        <mxCell id="F4o8GK-kTVXrnvfhs4Wn-9" style="edgeStyle=orthogonalEdgeStyle;rounded=0;orthogonalLoop=1;jettySize=auto;html=1;exitX=1;exitY=0.5;exitDx=0;exitDy=0;entryX=0;entryY=0.5;entryDx=0;entryDy=0;" parent="1" source="ZkQlCj-t4eO2nXIB6Crw-10" target="F4o8GK-kTVXrnvfhs4Wn-3" edge="1">
          <mxGeometry relative="1" as="geometry" />
        </mxCell>
        <mxCell id="ZkQlCj-t4eO2nXIB6Crw-10" value="crm_sales_details" style="rounded=1;whiteSpace=wrap;html=1;strokeColor=#FFB570;" parent="1" vertex="1">
          <mxGeometry x="190" y="210" width="140" height="30" as="geometry" />
        </mxCell>
        <mxCell id="F4o8GK-kTVXrnvfhs4Wn-11" style="edgeStyle=orthogonalEdgeStyle;rounded=0;orthogonalLoop=1;jettySize=auto;html=1;exitX=1;exitY=0.5;exitDx=0;exitDy=0;entryX=0;entryY=0.5;entryDx=0;entryDy=0;" parent="1" source="ZkQlCj-t4eO2nXIB6Crw-17" target="F4o8GK-kTVXrnvfhs4Wn-4" edge="1">
          <mxGeometry relative="1" as="geometry" />
        </mxCell>
        <mxCell id="ZkQlCj-t4eO2nXIB6Crw-17" value="crm_prd_info" style="rounded=1;whiteSpace=wrap;html=1;strokeColor=#FFB570;" parent="1" vertex="1">
          <mxGeometry x="190" y="290" width="140" height="30" as="geometry" />
        </mxCell>
        <mxCell id="F4o8GK-kTVXrnvfhs4Wn-10" style="edgeStyle=orthogonalEdgeStyle;rounded=0;orthogonalLoop=1;jettySize=auto;html=1;exitX=1;exitY=0.5;exitDx=0;exitDy=0;entryX=0;entryY=0.5;entryDx=0;entryDy=0;" parent="1" source="ZkQlCj-t4eO2nXIB6Crw-18" target="F4o8GK-kTVXrnvfhs4Wn-5" edge="1">
          <mxGeometry relative="1" as="geometry" />
        </mxCell>
        <mxCell id="ZkQlCj-t4eO2nXIB6Crw-18" value="crm_cust_info" style="rounded=1;whiteSpace=wrap;html=1;strokeColor=#FFB570;" parent="1" vertex="1">
          <mxGeometry x="190" y="250" width="140" height="30" as="geometry" />
        </mxCell>
        <mxCell id="F4o8GK-kTVXrnvfhs4Wn-14" style="edgeStyle=orthogonalEdgeStyle;rounded=0;orthogonalLoop=1;jettySize=auto;html=1;exitX=1;exitY=0.5;exitDx=0;exitDy=0;" parent="1" source="ZkQlCj-t4eO2nXIB6Crw-19" target="F4o8GK-kTVXrnvfhs4Wn-6" edge="1">
          <mxGeometry relative="1" as="geometry" />
        </mxCell>
        <mxCell id="ZkQlCj-t4eO2nXIB6Crw-19" value="erp_px_cat_g1v2" style="rounded=1;whiteSpace=wrap;html=1;strokeColor=#FFB570;" parent="1" vertex="1">
          <mxGeometry x="190" y="470" width="140" height="30" as="geometry" />
        </mxCell>
        <mxCell id="F4o8GK-kTVXrnvfhs4Wn-13" style="edgeStyle=orthogonalEdgeStyle;rounded=0;orthogonalLoop=1;jettySize=auto;html=1;exitX=1;exitY=0.5;exitDx=0;exitDy=0;entryX=0;entryY=0.5;entryDx=0;entryDy=0;" parent="1" source="ZkQlCj-t4eO2nXIB6Crw-20" target="F4o8GK-kTVXrnvfhs4Wn-7" edge="1">
          <mxGeometry relative="1" as="geometry" />
        </mxCell>
        <mxCell id="ZkQlCj-t4eO2nXIB6Crw-20" value="erp_loc_a101" style="rounded=1;whiteSpace=wrap;html=1;strokeColor=#FFB570;" parent="1" vertex="1">
          <mxGeometry x="190" y="430" width="140" height="30" as="geometry" />
        </mxCell>
        <mxCell id="F4o8GK-kTVXrnvfhs4Wn-12" style="edgeStyle=orthogonalEdgeStyle;rounded=0;orthogonalLoop=1;jettySize=auto;html=1;exitX=1;exitY=0.5;exitDx=0;exitDy=0;entryX=0;entryY=0.5;entryDx=0;entryDy=0;" parent="1" source="ZkQlCj-t4eO2nXIB6Crw-21" target="F4o8GK-kTVXrnvfhs4Wn-8" edge="1">
          <mxGeometry relative="1" as="geometry" />
        </mxCell>
        <mxCell id="ZkQlCj-t4eO2nXIB6Crw-21" value="erp_cust_az12" style="rounded=1;whiteSpace=wrap;html=1;strokeColor=#FFB570;" parent="1" vertex="1">
          <mxGeometry x="190" y="390" width="140" height="30" as="geometry" />
        </mxCell>
        <mxCell id="ZkQlCj-t4eO2nXIB6Crw-25" style="edgeStyle=orthogonalEdgeStyle;rounded=0;orthogonalLoop=1;jettySize=auto;html=1;entryX=0;entryY=0.75;entryDx=0;entryDy=0;" parent="1" source="ZkQlCj-t4eO2nXIB6Crw-7" target="ZkQlCj-t4eO2nXIB6Crw-2" edge="1">
          <mxGeometry relative="1" as="geometry" />
        </mxCell>
        <mxCell id="F4o8GK-kTVXrnvfhs4Wn-1" value="" style="rounded=0;whiteSpace=wrap;html=1;fillColor=none;strokeColor=#B3B3B3;" parent="1" vertex="1">
          <mxGeometry x="380" y="170" width="160" height="370" as="geometry" />
        </mxCell>
        <mxCell id="F4o8GK-kTVXrnvfhs4Wn-2" value="Silver Layer" style="rounded=1;whiteSpace=wrap;html=1;fontSize=16;fillColor=light-dark(#000000,#B3B3B3);strokeColor=#B3B3B3;fontStyle=1;fontColor=#030303;" parent="1" vertex="1">
          <mxGeometry x="380" y="120" width="160" height="40" as="geometry" />
        </mxCell>
        <mxCell id="F4o8GK-kTVXrnvfhs4Wn-3" value="crm_sales_details" style="rounded=1;whiteSpace=wrap;html=1;" parent="1" vertex="1">
          <mxGeometry x="390" y="210" width="140" height="30" as="geometry" />
        </mxCell>
        <mxCell id="F4o8GK-kTVXrnvfhs4Wn-4" value="crm_prd_info" style="rounded=1;whiteSpace=wrap;html=1;" parent="1" vertex="1">
          <mxGeometry x="390" y="290" width="140" height="30" as="geometry" />
        </mxCell>
        <mxCell id="F4o8GK-kTVXrnvfhs4Wn-5" value="crm_cust_info" style="rounded=1;whiteSpace=wrap;html=1;" parent="1" vertex="1">
          <mxGeometry x="390" y="250" width="140" height="30" as="geometry" />
        </mxCell>
        <mxCell id="F4o8GK-kTVXrnvfhs4Wn-6" value="erp_px_cat_g1v2" style="rounded=1;whiteSpace=wrap;html=1;" parent="1" vertex="1">
          <mxGeometry x="390" y="470" width="140" height="30" as="geometry" />
        </mxCell>
        <mxCell id="F4o8GK-kTVXrnvfhs4Wn-7" value="erp_loc_a101" style="rounded=1;whiteSpace=wrap;html=1;" parent="1" vertex="1">
          <mxGeometry x="390" y="430" width="140" height="30" as="geometry" />
        </mxCell>
        <mxCell id="F4o8GK-kTVXrnvfhs4Wn-8" value="erp_cust_az12" style="rounded=1;whiteSpace=wrap;html=1;" parent="1" vertex="1">
          <mxGeometry x="390" y="390" width="140" height="30" as="geometry" />
        </mxCell>
        <mxCell id="u0HTEUFKpu8MQJyHLVVV-1" value="" style="rounded=0;whiteSpace=wrap;html=1;fillColor=none;strokeColor=#FFFF99;" vertex="1" parent="1">
          <mxGeometry x="580" y="170" width="160" height="370" as="geometry" />
        </mxCell>
        <mxCell id="u0HTEUFKpu8MQJyHLVVV-2" value="Gold Layer" style="rounded=1;whiteSpace=wrap;html=1;fontSize=16;fillColor=light-dark(#000000,#FFFF99);strokeColor=#B3B3B3;fontStyle=1;fontColor=#030303;" vertex="1" parent="1">
          <mxGeometry x="580" y="120" width="160" height="40" as="geometry" />
        </mxCell>
        <mxCell id="u0HTEUFKpu8MQJyHLVVV-3" value="dim_customers" style="rounded=1;whiteSpace=wrap;html=1;strokeColor=#FFFF99;" vertex="1" parent="1">
          <mxGeometry x="590" y="320" width="140" height="30" as="geometry" />
        </mxCell>
        <mxCell id="u0HTEUFKpu8MQJyHLVVV-4" value="fact_sales" style="rounded=1;whiteSpace=wrap;html=1;strokeColor=#FFFF99;" vertex="1" parent="1">
          <mxGeometry x="590" y="230" width="140" height="30" as="geometry" />
        </mxCell>
        <mxCell id="u0HTEUFKpu8MQJyHLVVV-5" value="dim_products" style="rounded=1;whiteSpace=wrap;html=1;strokeColor=#FFFF99;" vertex="1" parent="1">
          <mxGeometry x="590" y="410" width="140" height="30" as="geometry" />
        </mxCell>
        <mxCell id="u0HTEUFKpu8MQJyHLVVV-15" value="" style="endArrow=classic;html=1;rounded=0;exitX=1;exitY=0.5;exitDx=0;exitDy=0;entryX=0;entryY=0.5;entryDx=0;entryDy=0;" edge="1" parent="1" source="F4o8GK-kTVXrnvfhs4Wn-3" target="u0HTEUFKpu8MQJyHLVVV-4">
          <mxGeometry width="50" height="50" relative="1" as="geometry">
            <mxPoint x="540" y="320" as="sourcePoint" />
            <mxPoint x="590" y="270" as="targetPoint" />
          </mxGeometry>
        </mxCell>
        <mxCell id="u0HTEUFKpu8MQJyHLVVV-16" value="" style="endArrow=classic;html=1;rounded=0;exitX=1;exitY=0.75;exitDx=0;exitDy=0;entryX=0;entryY=0.75;entryDx=0;entryDy=0;" edge="1" parent="1" source="F4o8GK-kTVXrnvfhs4Wn-5" target="u0HTEUFKpu8MQJyHLVVV-3">
          <mxGeometry width="50" height="50" relative="1" as="geometry">
            <mxPoint x="560" y="280" as="sourcePoint" />
            <mxPoint x="620" y="300" as="targetPoint" />
          </mxGeometry>
        </mxCell>
        <mxCell id="u0HTEUFKpu8MQJyHLVVV-17" value="" style="endArrow=classic;html=1;rounded=0;exitX=1;exitY=0.5;exitDx=0;exitDy=0;entryX=0;entryY=0.75;entryDx=0;entryDy=0;" edge="1" parent="1" source="F4o8GK-kTVXrnvfhs4Wn-4" target="u0HTEUFKpu8MQJyHLVVV-5">
          <mxGeometry width="50" height="50" relative="1" as="geometry">
            <mxPoint x="540" y="350" as="sourcePoint" />
            <mxPoint x="600" y="370" as="targetPoint" />
          </mxGeometry>
        </mxCell>
        <mxCell id="u0HTEUFKpu8MQJyHLVVV-18" value="" style="endArrow=classic;html=1;rounded=0;exitX=1;exitY=0.75;exitDx=0;exitDy=0;entryX=0;entryY=0.75;entryDx=0;entryDy=0;" edge="1" parent="1" source="F4o8GK-kTVXrnvfhs4Wn-8" target="u0HTEUFKpu8MQJyHLVVV-3">
          <mxGeometry width="50" height="50" relative="1" as="geometry">
            <mxPoint x="550" y="450" as="sourcePoint" />
            <mxPoint x="610" y="470" as="targetPoint" />
          </mxGeometry>
        </mxCell>
        <mxCell id="u0HTEUFKpu8MQJyHLVVV-19" value="" style="endArrow=classic;html=1;rounded=0;exitX=1;exitY=0.5;exitDx=0;exitDy=0;entryX=0;entryY=0.5;entryDx=0;entryDy=0;" edge="1" parent="1" source="F4o8GK-kTVXrnvfhs4Wn-7" target="u0HTEUFKpu8MQJyHLVVV-3">
          <mxGeometry width="50" height="50" relative="1" as="geometry">
            <mxPoint x="550" y="430" as="sourcePoint" />
            <mxPoint x="610" y="450" as="targetPoint" />
          </mxGeometry>
        </mxCell>
        <mxCell id="u0HTEUFKpu8MQJyHLVVV-20" value="" style="endArrow=classic;html=1;rounded=0;entryX=0;entryY=0.75;entryDx=0;entryDy=0;" edge="1" parent="1" source="F4o8GK-kTVXrnvfhs4Wn-6" target="u0HTEUFKpu8MQJyHLVVV-5">
          <mxGeometry width="50" height="50" relative="1" as="geometry">
            <mxPoint x="560" y="490" as="sourcePoint" />
            <mxPoint x="620" y="510" as="targetPoint" />
          </mxGeometry>
        </mxCell>
      </root>
    </mxGraphModel>
  </diagram>
</mxfile>
